<svg width="24" height="24" viewBox="0 0 24 24" fill="none" xmlns="http://www.w3.org/2000/svg">
<path d="M18.6403 3H5.35996C4.05877 3 3 4.05877 3 5.36024V18.6392C3 19.9409 4.05849 21 5.35996 21H18.6403C19.9415 21 21 19.9412 21 18.6392V5.36024C21 4.05877 19.9415 3 18.6403 3ZM17.5324 13.8449H13.8446V17.5324H10.1576V13.8449H6.46869V10.1551H10.1576V6.46755H13.8446V10.1551H17.5324V13.8449Z" fill="#55CF61"/>
<circle cx="20" cy="20" r="4" fill="white"/>
<path d="M20.7903 21.2524H19.2097L18.9092 22.1538H17.9507L19.5793 17.7788H20.4147L22.0523 22.1538H21.0937L20.7903 21.2524ZM19.4531 20.5222H20.5469L19.997 18.8846L19.4531 20.5222Z" fill="#55CF61"/>
</svg>
