<svg width="24" height="24" viewBox="0 0 24 24" fill="none" xmlns="http://www.w3.org/2000/svg">
<path d="M18.6403 3H5.35996C4.05877 3 3 4.05877 3 5.36024V18.6392C3 19.9409 4.05849 21 5.35996 21H18.6403C19.9415 21 21 19.9412 21 18.6392V5.36024C21 4.05877 19.9415 3 18.6403 3ZM17.5324 13.8449H13.8446V17.5324H10.1576V13.8449H6.46869V10.1551H10.1576V6.46755H13.8446V10.1551H17.5324V13.8449Z" fill="#F58529"/>
<circle cx="20" cy="20" r="4" fill="white"/>
<path d="M21.8119 20.6965C21.7778 21.1673 21.6036 21.5379 21.2891 21.8083C20.9766 22.0787 20.5639 22.2139 20.0511 22.2139C19.4902 22.2139 19.0485 22.0256 18.726 21.649C18.4054 21.2704 18.2452 20.7516 18.2452 20.0925V19.8251C18.2452 19.4044 18.3193 19.0339 18.4675 18.7133C18.6158 18.3928 18.8271 18.1474 19.1016 17.9772C19.378 17.8049 19.6985 17.7188 20.0631 17.7188C20.5679 17.7188 20.9746 17.854 21.2831 18.1244C21.5915 18.3948 21.7698 18.7744 21.8179 19.2632H20.9165C20.8944 18.9808 20.8153 18.7764 20.6791 18.6502C20.5449 18.522 20.3395 18.4579 20.0631 18.4579C19.7626 18.4579 19.5373 18.5661 19.387 18.7825C19.2388 18.9968 19.1627 19.3303 19.1587 19.7831V20.1136C19.1587 20.5863 19.2298 20.9319 19.372 21.1502C19.5162 21.3686 19.7426 21.4778 20.0511 21.4778C20.3295 21.4778 20.5369 21.4147 20.6731 21.2885C20.8113 21.1603 20.8904 20.9629 20.9105 20.6965H21.8119Z" fill="#F58529"/>
</svg>
