<svg width="24" height="24" viewBox="0 0 24 24" fill="none" xmlns="http://www.w3.org/2000/svg">
<path d="M18.6403 3H5.35996C4.05877 3 3 4.05877 3 5.36024V18.6392C3 19.9409 4.05849 21 5.35996 21H18.6403C19.9415 21 21 19.9412 21 18.6392V5.36024C21 4.05877 19.9415 3 18.6403 3ZM17.5324 13.8449H13.8446V17.5324H10.1576V13.8449H6.46869V10.1551H10.1576V6.46755H13.8446V10.1551H17.5324V13.8449Z" fill="#EB545D"/>
<circle cx="20" cy="20" r="4" fill="white"/>
<path d="M18.3894 22.1538V17.7788H19.7356C20.1202 17.7788 20.4637 17.8659 20.7662 18.0402C21.0707 18.2125 21.3081 18.4589 21.4784 18.7794C21.6486 19.0979 21.7338 19.4605 21.7338 19.8672V20.0685C21.7338 20.4751 21.6496 20.8367 21.4814 21.1532C21.3151 21.4697 21.0797 21.7151 20.7752 21.8894C20.4707 22.0637 20.1272 22.1518 19.7446 22.1538H18.3894ZM19.2909 18.509V21.4297H19.7266C20.0791 21.4297 20.3486 21.3145 20.5349 21.0841C20.7212 20.8537 20.8163 20.5242 20.8203 20.0955V19.8641C20.8203 19.4194 20.7282 19.0829 20.5439 18.8545C20.3596 18.6242 20.0901 18.509 19.7356 18.509H19.2909Z" fill="#EB545D"/>
</svg>
