<svg width="24" height="24" viewBox="0 0 24 24" fill="none" xmlns="http://www.w3.org/2000/svg">
<path d="M18.6403 3H5.35996C4.05877 3 3 4.05877 3 5.36024V18.6392C3 19.9409 4.05849 21 5.35996 21H18.6403C19.9415 21 21 19.9412 21 18.6392V5.36024C21 4.05877 19.9415 3 18.6403 3ZM17.5324 13.8449H13.8446V17.5324H10.1576V13.8449H6.46869V10.1551H10.1576V6.46755H13.8446V10.1551H17.5324V13.8449Z" fill="#FEDA77"/>
<circle cx="20" cy="20" r="4" fill="white"/>
<path d="M18.4255 22.1538V17.7788H19.9579C20.4888 17.7788 20.8914 17.881 21.1659 18.0853C21.4403 18.2876 21.5775 18.5851 21.5775 18.9777C21.5775 19.1921 21.5224 19.3814 21.4123 19.5456C21.3021 19.7079 21.1488 19.8271 20.9525 19.9032C21.1769 19.9593 21.3532 20.0725 21.4814 20.2428C21.6116 20.413 21.6767 20.6214 21.6767 20.8678C21.6767 21.2884 21.5425 21.6069 21.274 21.8233C21.0056 22.0396 20.623 22.1498 20.1262 22.1538H18.4255ZM19.3269 20.2488V21.4297H20.0992C20.3115 21.4297 20.4768 21.3796 20.5949 21.2794C20.7151 21.1772 20.7752 21.037 20.7752 20.8587C20.7752 20.4581 20.5679 20.2548 20.1532 20.2488H19.3269ZM19.3269 19.6117H19.994C20.4487 19.6037 20.6761 19.4224 20.6761 19.0679C20.6761 18.8696 20.618 18.7273 20.5018 18.6412C20.3876 18.553 20.2063 18.509 19.9579 18.509H19.3269V19.6117Z" fill="#FEDA77"/>
</svg>
