<svg width="24" height="24" viewBox="0 0 24 24" fill="none" xmlns="http://www.w3.org/2000/svg">
<path d="M11.989 13.8C13.126 13.8 14.2164 13.3259 15.0204 12.482C15.8244 11.6381 16.2761 10.4935 16.2761 9.3C16.2761 8.10653 15.8244 6.96194 15.0204 6.11803C14.2164 5.27411 13.126 4.80001 11.989 4.80001C10.852 4.80001 9.76151 5.27411 8.95753 6.11803C8.15354 6.96194 7.70186 8.10653 7.70186 9.3C7.70186 10.4935 8.15354 11.6381 8.95753 12.482C9.76151 13.3259 10.852 13.8 11.989 13.8ZM12.8464 17.4H13.7038C13.9312 17.4 14.1493 17.4948 14.3101 17.6636C14.4709 17.8324 14.5612 18.0613 14.5612 18.3C14.5612 18.5387 14.4709 18.7676 14.3101 18.9364C14.1493 19.1052 13.9312 19.2 13.7038 19.2H12.8464V20.1C12.8464 20.3387 12.7561 20.5676 12.5953 20.7364C12.4345 20.9052 12.2164 21 11.989 21C11.7616 21 11.5435 20.9052 11.3827 20.7364C11.2219 20.5676 11.1315 20.3387 11.1315 20.1V19.2H10.2741C10.0467 19.2 9.82863 19.1052 9.66784 18.9364C9.50704 18.7676 9.4167 18.5387 9.4167 18.3C9.4167 18.0613 9.50704 17.8324 9.66784 17.6636C9.82863 17.4948 10.0467 17.4 10.2741 17.4H11.1315V15.6C11.1315 15.5784 11.1315 15.5577 11.1333 15.537C9.63381 15.3064 8.27292 14.4891 7.32367 13.2491C6.37443 12.0091 5.90706 10.4381 6.01536 8.85145C6.12366 7.2648 6.7996 5.77983 7.90756 4.69454C9.01552 3.60924 10.4735 3.0039 11.989 3.00001C13.5081 2.9976 14.9716 3.59994 16.0843 4.68556C17.197 5.77118 17.8761 7.2593 17.9846 8.84979C18.0932 10.4403 17.6231 12.0148 16.6692 13.2559C15.7154 14.4969 14.3486 15.3121 12.8447 15.537L12.8464 15.6V17.4Z" fill="#EB579E"/>
</svg>
