<svg width="24" height="24" viewBox="0 0 24 24" fill="none" xmlns="http://www.w3.org/2000/svg">
<path d="M12 21C16.9626 21 21 16.9626 21 12C21 7.0374 16.9626 3 12 3C7.0374 3 3 7.0374 3 12C3 16.9626 7.0374 21 12 21ZM15.1437 9.3C15.3231 9.29542 15.5017 9.32681 15.6688 9.39233C15.8359 9.45785 15.9882 9.55616 16.1168 9.68148C16.2453 9.8068 16.3474 9.95658 16.4171 10.122C16.4868 10.2874 16.5227 10.4651 16.5226 10.6446C16.5226 10.8241 16.4866 11.0018 16.4168 11.1672C16.3469 11.3325 16.2447 11.4822 16.1161 11.6075C15.9875 11.7327 15.8351 11.8309 15.668 11.8963C15.5008 11.9617 15.3222 11.993 15.1428 11.9883C14.7923 11.9791 14.4593 11.8334 14.2147 11.5822C13.9701 11.3311 13.8333 10.9943 13.8334 10.6437C13.8335 10.2931 13.9706 9.95645 14.2154 9.70544C14.4601 9.45443 14.7932 9.30895 15.1437 9.3ZM11.2728 15.5271C11.7528 15.6234 12.2472 15.6234 12.7272 15.5271C12.9549 15.4803 13.1817 15.4092 13.4022 15.3174C13.6128 15.2274 13.8198 15.1158 14.0133 14.9862C14.2005 14.8584 14.3796 14.7108 14.5452 14.5461C14.8162 14.2766 15.2424 14.1865 15.5593 14.4L15.7313 14.5159C16.1433 14.7935 16.2569 15.3591 15.9149 15.7194C15.6456 16.003 15.3458 16.2574 15.0204 16.4775C14.4351 16.8725 13.778 17.1489 13.0863 17.2911C12.3692 17.4351 11.6306 17.4348 10.9137 17.2902C10.2218 17.1501 9.56469 16.8738 8.9805 16.4775C8.65551 16.2571 8.35593 16.0028 8.08654 15.7195C7.74353 15.3588 7.85681 14.7919 8.26964 14.5137L8.44142 14.398C8.75779 14.1849 9.18251 14.2744 9.453 14.5434C9.94991 15.0428 10.5828 15.3849 11.2728 15.5271ZM8.85 9.3C9.02734 9.30006 9.20294 9.33505 9.36676 9.40297C9.53058 9.47089 9.67942 9.57041 9.80478 9.69586C9.93014 9.8213 10.0296 9.9702 10.0974 10.1341C10.1652 10.2979 10.2001 10.4736 10.2 10.6509C10.1999 10.8282 10.165 11.0038 10.097 11.1677C10.0291 11.3315 9.92959 11.4803 9.80414 11.6057C9.6787 11.731 9.5298 11.8305 9.36593 11.8983C9.20206 11.9661 9.02644 12.001 8.8491 12.0009C8.49094 12.0008 8.14749 11.8584 7.89432 11.605C7.64115 11.3517 7.49898 11.0082 7.4991 10.65C7.49922 10.2918 7.64161 9.94839 7.89496 9.69522C8.1483 9.44204 8.49184 9.29988 8.85 9.3Z" fill="#55CF61"/>
</svg>
