<svg width="24" height="24" viewBox="0 0 24 24" fill="none" xmlns="http://www.w3.org/2000/svg">
<path d="M12 3C10.8181 3 9.64778 3.23279 8.55585 3.68508C7.46392 4.13738 6.47177 4.80031 5.63604 5.63604C3.94821 7.32387 3 9.61305 3 12C3 14.3869 3.94821 16.6761 5.63604 18.364C6.47177 19.1997 7.46392 19.8626 8.55585 20.3149C9.64778 20.7672 10.8181 21 12 21C14.3869 21 16.6761 20.0518 18.364 18.364C20.0518 16.6761 21 14.3869 21 12C21 10.8181 20.7672 9.64778 20.3149 8.55585C19.8626 7.46392 19.1997 6.47177 18.364 5.63604C17.5282 4.80031 16.5361 4.13738 15.4442 3.68508C14.3522 3.23279 13.1819 3 12 3ZM7.5 9.75C7.5 9.03 8.13 8.4 8.85 8.4C9.57 8.4 10.2 9.03 10.2 9.75C10.2 10.47 9.57 11.1 8.85 11.1C8.13 11.1 7.5 10.47 7.5 9.75ZM15.542 14.7C15.542 15.1971 15.1394 15.6 14.6423 15.6C13.8459 15.6 12.7323 15.6 12 15.6C11.2133 15.6 9.84267 15.6 8.89939 15.6C8.40234 15.6 8 15.1971 8 14.7C8 14.2029 8.40267 13.8 8.89973 13.8C9.75915 13.8 10.8796 13.8 12 13.8C13.1161 13.8 13.9058 13.8 14.6421 13.8C15.1391 13.8 15.542 14.2029 15.542 14.7ZM15.15 11.1C14.43 11.1 13.8 10.47 13.8 9.75C13.8 9.03 14.43 8.4 15.15 8.4C15.87 8.4 16.5 9.03 16.5 9.75C16.5 10.47 15.87 11.1 15.15 11.1Z" fill="#FEDA77"/>
</svg>
