<?xml version="1.0" encoding="utf-8"?>
<!-- Generator: Adobe Illustrator 24.0.1, SVG Export Plug-In . SVG Version: 6.00 Build 0)  -->
<svg version="1.1" id="Layer_1" xmlns="http://www.w3.org/2000/svg" xmlns:xlink="http://www.w3.org/1999/xlink" x="0px" y="0px"
	 viewBox="0 0 18 18" style="enable-background:new 0 0 18 18;" xml:space="preserve">
<style type="text/css">
	.st0{fill:#F26923;}
</style>
<path class="st0" d="M5,2.5C5,3.9,3.9,5,2.5,5S0,3.9,0,2.5S1.1,0,2.5,0S5,1.1,5,2.5z"/>
<path class="st0" d="M5,9c0,1.4-1.1,2.5-2.5,2.5S0,10.4,0,9c0-1.4,1.1-2.5,2.5-2.5S5,7.6,5,9z"/>
<path class="st0" d="M5,15.5C5,16.9,3.9,18,2.5,18S0,16.9,0,15.5S1.1,13,2.5,13S5,14.1,5,15.5z"/>
<path class="st0" d="M11.5,2.5C11.5,3.9,10.4,5,9,5C7.6,5,6.5,3.9,6.5,2.5S7.6,0,9,0C10.4,0,11.5,1.1,11.5,2.5z"/>
<path class="st0" d="M11.5,9c0,1.4-1.1,2.5-2.5,2.5c-1.4,0-2.5-1.1-2.5-2.5c0-1.4,1.1-2.5,2.5-2.5C10.4,6.5,11.5,7.6,11.5,9z"/>
<path class="st0" d="M11.5,15.5c0,1.4-1.1,2.5-2.5,2.5c-1.4,0-2.5-1.1-2.5-2.5S7.6,13,9,13C10.4,13,11.5,14.1,11.5,15.5z"/>
<path class="st0" d="M18,2.5C18,3.9,16.9,5,15.5,5S13,3.9,13,2.5S14.1,0,15.5,0S18,1.1,18,2.5z"/>
<path class="st0" d="M18,9c0,1.4-1.1,2.5-2.5,2.5S13,10.4,13,9c0-1.4,1.1-2.5,2.5-2.5S18,7.6,18,9z"/>
<path class="st0" d="M18,15.5c0,1.4-1.1,2.5-2.5,2.5S13,16.9,13,15.5s1.1-2.5,2.5-2.5S18,14.1,18,15.5z"/>
</svg>
