<svg width="246" height="246" viewBox="0 0 246 246" fill="none" xmlns="http://www.w3.org/2000/svg">
    <path d="M68.3333 34.1667C68.3333 53.0364 53.0364 68.3333 34.1667 68.3333C15.2969 68.3333 0 53.0364 0 34.1667C0 15.2969 15.2969 0 34.1667 0C53.0364 0 68.3333 15.2969 68.3333 34.1667Z" fill="#272663"/>
    <path d="M68.3333 123C68.3333 141.87 53.0364 157.167 34.1667 157.167C15.2969 157.167 0 141.87 0 123C0 104.13 15.2969 88.8333 34.1667 88.8333C53.0364 88.8333 68.3333 104.13 68.3333 123Z" fill="#272663"/>
    <path d="M68.3333 211.833C68.3333 230.703 53.0364 246 34.1667 246C15.2969 246 0 230.703 0 211.833C0 192.964 15.2969 177.667 34.1667 177.667C53.0364 177.667 68.3333 192.964 68.3333 211.833Z" fill="#272663"/>
    <path d="M157.167 34.1667C157.167 53.0364 141.87 68.3333 123 68.3333C104.13 68.3333 88.8333 53.0364 88.8333 34.1667C88.8333 15.2969 104.13 0 123 0C141.87 0 157.167 15.2969 157.167 34.1667Z" fill="#272663"/>
    <path d="M157.167 123C157.167 141.87 141.87 157.167 123 157.167C104.13 157.167 88.8333 141.87 88.8333 123C88.8333 104.13 104.13 88.8333 123 88.8333C141.87 88.8333 157.167 104.13 157.167 123Z" fill="#272663"/>
    <path d="M157.167 211.833C157.167 230.703 141.87 246 123 246C104.13 246 88.8333 230.703 88.8333 211.833C88.8333 192.964 104.13 177.667 123 177.667C141.87 177.667 157.167 192.964 157.167 211.833Z" fill="#272663"/>
    <path d="M246 34.1667C246 53.0364 230.703 68.3333 211.833 68.3333C192.964 68.3333 177.667 53.0364 177.667 34.1667C177.667 15.2969 192.964 0 211.833 0C230.703 0 246 15.2969 246 34.1667Z" fill="#272663"/>
    <path d="M246 123C246 141.87 230.703 157.167 211.833 157.167C192.964 157.167 177.667 141.87 177.667 123C177.667 104.13 192.964 88.8333 211.833 88.8333C230.703 88.8333 246 104.13 246 123Z" fill="#272663"/>
    <path d="M246 211.833C246 230.703 230.703 246 211.833 246C192.964 246 177.667 230.703 177.667 211.833C177.667 192.964 192.964 177.667 211.833 177.667C230.703 177.667 246 192.964 246 211.833Z" fill="#272663"/>
</svg>
