<svg width="18" height="18" viewBox="0 0 18 18" fill="none" xmlns="http://www.w3.org/2000/svg">
    <path d="M5 2.5C5 3.88071 3.88071 5 2.5 5C1.11929 5 0 3.88071 0 2.5C0 1.11929 1.11929 0 2.5 0C3.88071 0 5 1.11929 5 2.5Z" fill="#5C5C5C"/>
    <path d="M5 9C5 10.3807 3.88071 11.5 2.5 11.5C1.11929 11.5 0 10.3807 0 9C0 7.61929 1.11929 6.5 2.5 6.5C3.88071 6.5 5 7.61929 5 9Z" fill="#5C5C5C"/>
    <path d="M5 15.5C5 16.8807 3.88071 18 2.5 18C1.11929 18 0 16.8807 0 15.5C0 14.1193 1.11929 13 2.5 13C3.88071 13 5 14.1193 5 15.5Z" fill="#5C5C5C"/>
    <path d="M11.5 2.5C11.5 3.88071 10.3807 5 9 5C7.61929 5 6.5 3.88071 6.5 2.5C6.5 1.11929 7.61929 0 9 0C10.3807 0 11.5 1.11929 11.5 2.5Z" fill="#5C5C5C"/>
    <path d="M11.5 9C11.5 10.3807 10.3807 11.5 9 11.5C7.61929 11.5 6.5 10.3807 6.5 9C6.5 7.61929 7.61929 6.5 9 6.5C10.3807 6.5 11.5 7.61929 11.5 9Z" fill="#5C5C5C"/>
    <path d="M11.5 15.5C11.5 16.8807 10.3807 18 9 18C7.61929 18 6.5 16.8807 6.5 15.5C6.5 14.1193 7.61929 13 9 13C10.3807 13 11.5 14.1193 11.5 15.5Z" fill="#5C5C5C"/>
    <path d="M18 2.5C18 3.88071 16.8807 5 15.5 5C14.1193 5 13 3.88071 13 2.5C13 1.11929 14.1193 0 15.5 0C16.8807 0 18 1.11929 18 2.5Z" fill="#5C5C5C"/>
    <path d="M18 9C18 10.3807 16.8807 11.5 15.5 11.5C14.1193 11.5 13 10.3807 13 9C13 7.61929 14.1193 6.5 15.5 6.5C16.8807 6.5 18 7.61929 18 9Z" fill="#5C5C5C"/>
    <path d="M18 15.5C18 16.8807 16.8807 18 15.5 18C14.1193 18 13 16.8807 13 15.5C13 14.1193 14.1193 13 15.5 13C16.8807 13 18 14.1193 18 15.5Z" fill="#5C5C5C"/>
</svg>
