<svg width="22" height="16" viewBox="0 0 22 16" fill="none" xmlns="http://www.w3.org/2000/svg">
    <path d="M8.28139 8C8.28139 8.69619 8.55795 9.36387 9.05023 9.85616C9.54251 10.3484 10.2102 10.625 10.9064 10.625C11.6026 10.625 12.2703 10.3484 12.7625 9.85616C13.2548 9.36387 13.5314 8.69619 13.5314 8C13.5314 7.30381 13.2548 6.63613 12.7625 6.14384C12.2703 5.65156 11.6026 5.375 10.9064 5.375C10.2102 5.375 9.54251 5.65156 9.05023 6.14384C8.55795 6.63613 8.28139 7.30381 8.28139 8ZM21.0829 7.39531C18.8611 2.71484 15.5025 0.359375 11.0001 0.359375C6.49545 0.359375 3.1392 2.71484 0.917323 7.39766C0.828203 7.58637 0.781982 7.79247 0.781982 8.00117C0.781982 8.20987 0.828203 8.41598 0.917323 8.60469C3.1392 13.2852 6.49779 15.6406 11.0001 15.6406C15.5048 15.6406 18.8611 13.2852 21.0829 8.60234C21.2634 8.22266 21.2634 7.78203 21.0829 7.39531ZM10.9064 12.125C8.62826 12.125 6.78139 10.2781 6.78139 8C6.78139 5.72188 8.62826 3.875 10.9064 3.875C13.1845 3.875 15.0314 5.72188 15.0314 8C15.0314 10.2781 13.1845 12.125 10.9064 12.125Z" fill="#5C5C5C"/>
</svg>
