<svg width="18" height="18" viewBox="0 0 18 18" fill="none" xmlns="http://www.w3.org/2000/svg">
    <path d="M12 3C12 4.4865 10.9189 5.72048 9.5 5.95852V12.0415C10.6416 12.233 11.5646 13.0693 11.8817 14.1631C12.5913 13.996 13.3164 13.7609 14.0496 13.4447C14.0171 13.3017 14 13.1528 14 13C14 11.8954 14.8954 11 16 11C17.1046 11 18 11.8954 18 13C18 14.1046 17.1046 15 16 15C15.4086 15 14.8771 14.7433 14.5109 14.3352C13.6596 14.7078 12.818 14.9786 11.9955 15.1648C11.91 16.745 10.6016 18 9 18C7.40288 18 6.09727 16.752 6.00519 15.1779C5.05233 14.9706 4.19499 14.6811 3.46301 14.3637C3.09793 14.7552 2.57755 15 2 15C0.895431 15 0 14.1046 0 13C0 11.8954 0.895431 11 2 11C3.10457 11 4 11.8954 4 13C4 13.1663 3.9797 13.3279 3.94145 13.4823C4.5717 13.7503 5.3033 13.996 6.11378 14.1788C6.42657 13.0773 7.35292 12.2339 8.5 12.0415V5.95852C7.08114 5.72048 6 4.4865 6 3C6 1.34315 7.34315 0 9 0C10.6569 0 12 1.34315 12 3Z" fill="#5C5C5C"/>
</svg>
