<svg width="246" height="246" viewBox="0 0 246 246" fill="none" xmlns="http://www.w3.org/2000/svg">
    <path d="M164 41C164 61.3155 149.224 78.1799 129.833 81.4331V164.567C145.435 167.184 158.049 178.613 162.383 193.562C172.082 191.279 181.99 188.066 192.011 183.744C191.568 181.789 191.333 179.755 191.333 177.667C191.333 162.571 203.571 150.333 218.667 150.333C233.762 150.333 246 162.571 246 177.667C246 192.762 233.762 205 218.667 205C210.584 205 203.32 201.492 198.316 195.915C186.681 201.007 175.179 204.708 163.939 207.253C162.77 228.849 144.888 246 123 246C101.173 246 83.3293 228.944 82.071 207.432C69.0485 204.598 57.3315 200.642 47.3279 196.304C42.3383 201.654 35.2266 205 27.3333 205C12.2376 205 0 192.762 0 177.667C0 162.571 12.2376 150.333 27.3333 150.333C42.4291 150.333 54.6667 162.571 54.6667 177.667C54.6667 179.939 54.3893 182.147 53.8665 184.259C62.4799 187.921 72.4784 191.279 83.555 193.777C87.8299 178.723 100.49 167.197 116.167 164.567V81.4331C96.7756 78.1799 82 61.3155 82 41C82 18.3563 100.356 0 123 0C145.644 0 164 18.3563 164 41Z" fill="#272663"/>
</svg>
