<?xml version="1.0" encoding="utf-8"?>
<!-- Generator: Adobe Illustrator 24.0.1, SVG Export Plug-In . SVG Version: 6.00 Build 0)  -->
<svg version="1.1" id="Layer_1" xmlns="http://www.w3.org/2000/svg" xmlns:xlink="http://www.w3.org/1999/xlink" x="0px" y="0px"
	 viewBox="0 0 18 18" style="enable-background:new 0 0 18 18;" xml:space="preserve">
<style type="text/css">
	.st0{fill:#F26923;}
</style>
<path class="st0" d="M12,3c0,1.5-1.1,2.7-2.5,3V12c1.1,0.2,2.1,1,2.4,2.1c0.7-0.2,1.4-0.4,2.2-0.7c0-0.1,0-0.3,0-0.4
	c0-1.1,0.9-2,2-2s2,0.9,2,2s-0.9,2-2,2c-0.6,0-1.1-0.3-1.5-0.7c-0.9,0.4-1.7,0.6-2.5,0.8c-0.1,1.6-1.4,2.8-3,2.8
	c-1.6,0-2.9-1.2-3-2.8c-1-0.2-1.8-0.5-2.5-0.8C3.1,14.8,2.6,15,2,15c-1.1,0-2-0.9-2-2s0.9-2,2-2s2,0.9,2,2c0,0.2,0,0.3-0.1,0.5
	c0.6,0.3,1.4,0.5,2.2,0.7c0.3-1.1,1.2-1.9,2.4-2.1V6C7.1,5.7,6,4.5,6,3c0-1.7,1.3-3,3-3C10.7,0,12,1.3,12,3z"/>
</svg>
