<svg width="18" height="18" viewBox="0 0 18 18" fill="none" xmlns="http://www.w3.org/2000/svg">
    <path d="M1.28571 11.5714C0.578571 11.5714 0 12.15 0 12.8571V16.7143C0 17.4214 0.578571 18 1.28571 18H5.14286C5.85 18 6.42857 17.4214 6.42857 16.7143C6.42857 16.0071 5.85 15.4286 5.14286 15.4286H2.57143V12.8571C2.57143 12.15 1.99286 11.5714 1.28571 11.5714ZM1.28571 6.42857C1.99286 6.42857 2.57143 5.85 2.57143 5.14286V2.57143H5.14286C5.85 2.57143 6.42857 1.99286 6.42857 1.28571C6.42857 0.578571 5.85 0 5.14286 0H1.28571C0.578571 0 0 0.578571 0 1.28571V5.14286C0 5.85 0.578571 6.42857 1.28571 6.42857ZM15.4286 15.4286H12.8571C12.15 15.4286 11.5714 16.0071 11.5714 16.7143C11.5714 17.4214 12.15 18 12.8571 18H16.7143C17.4214 18 18 17.4214 18 16.7143V12.8571C18 12.15 17.4214 11.5714 16.7143 11.5714C16.0071 11.5714 15.4286 12.15 15.4286 12.8571V15.4286ZM11.5714 1.28571C11.5714 1.99286 12.15 2.57143 12.8571 2.57143H15.4286V5.14286C15.4286 5.85 16.0071 6.42857 16.7143 6.42857C17.4214 6.42857 18 5.85 18 5.14286V1.28571C18 0.578571 17.4214 0 16.7143 0H12.8571C12.15 0 11.5714 0.578571 11.5714 1.28571Z" fill="#5C5C5C"/>
</svg>
