<svg width="24" height="24" viewBox="0 0 24 24" fill="none" xmlns="http://www.w3.org/2000/svg">
    <path d="M3 16C3 14.6193 4.11929 13.5 5.5 13.5C6.88071 13.5 8 14.6193 8 16C8 16.2473 7.9641 16.4861 7.89724 16.7117C8.44948 16.9848 9.07359 17.2261 9.75473 17.3993C10.1618 16.5705 11.0143 16 12 16C12.9763 16 13.8218 16.5596 14.2334 17.3755C14.8391 17.2132 15.4593 16.9797 16.0885 16.6617C16.0308 16.4509 16 16.2291 16 16C16 14.6193 17.1193 13.5 18.5 13.5C19.8807 13.5 21 14.6193 21 16C21 17.3807 19.8807 18.5 18.5 18.5C17.896 18.5 17.342 18.2858 16.9099 17.9292C16.0832 18.3631 15.2676 18.6692 14.4728 18.8701C14.2939 20.0753 13.2549 21 12 21C10.7505 21 9.71504 20.0833 9.52957 18.8857C8.61143 18.6634 7.77692 18.3337 7.05265 17.9595C6.62618 18.2979 6.08669 18.5 5.5 18.5C4.11929 18.5 3 17.3807 3 16Z" fill="#5C5C5C"/>
    <path d="M11.5875 3.17925L9.15 5.80426C8.99775 5.96851 8.95875 6.20701 9.0465 6.41251C9.13575 6.61726 9.33825 6.75001 9.5625 6.75001L11.25 6.75001L11.25 11.5C11.25 11.9148 11.586 12.25 12 12.25C12.414 12.25 12.75 11.9148 12.75 11.5L12.75 6.75001L14.4375 6.75001C14.661 6.75001 14.8635 6.61726 14.9535 6.41251C14.9843 6.33976 15 6.26401 15 6.18751C15 6.04801 14.9483 5.91076 14.85 5.80426L12.4125 3.17925C12.3053 3.06525 12.156 3 12 3C11.844 3 11.694 3.06525 11.5875 3.17925Z" fill="#5C5C5C"/>
</svg>
