<svg width="18" height="18" viewBox="0 0 18 18" fill="none" xmlns="http://www.w3.org/2000/svg">
    <path d="M9.0423 18C13.9815 18 18 13.9626 18 9C18 4.0374 13.9626 -1.55439e-06 9 -1.12054e-06C4.0374 -6.86699e-07 6.86699e-07 4.0374 1.12054e-06 9C1.55439e-06 13.9626 4.0563 18 9.0423 18ZM8.1 5.4C8.1 4.90294 8.50294 4.5 9 4.5C9.49706 4.5 9.9 4.90294 9.9 5.4C9.9 5.89706 9.49706 6.3 9 6.3C8.50294 6.3 8.1 5.89706 8.1 5.4ZM8.1 9C8.1 8.50294 8.50294 8.1 9 8.1C9.49706 8.1 9.9 8.50294 9.9 9L9.9 12.6C9.9 13.0971 9.49706 13.5 9 13.5C8.50294 13.5 8.1 13.0971 8.1 12.6L8.1 9Z" fill="#5C5C5C"/>
</svg>
