<svg width="246" height="246" viewBox="0 0 246 246" fill="none" xmlns="http://www.w3.org/2000/svg">
    <path d="M129.833 81.4331C149.224 78.1799 164 61.3155 164 41C164 18.3563 145.644 0 123 0C100.356 0 82 18.3563 82 41C82 61.3155 96.7756 78.1799 116.167 81.4331V116.167H68.3333C49.4636 116.167 34.1667 131.464 34.1667 150.333V164.567C14.7756 167.82 0 184.685 0 205C0 227.644 18.3563 246 41 246C63.6437 246 82 227.644 82 205C82 184.685 67.2244 167.82 47.8333 164.567V150.333C47.8333 139.011 57.0115 129.833 68.3333 129.833H177.667C188.989 129.833 198.167 139.012 198.167 150.333V164.567C178.776 167.82 164 184.685 164 205C164 227.644 182.356 246 205 246C227.644 246 246 227.644 246 205C246 184.685 231.224 167.82 211.833 164.567V150.333C211.833 131.464 196.536 116.167 177.667 116.167H129.833V81.4331Z" fill="#272663"/>
</svg>
