<?xml version="1.0" encoding="utf-8"?>
<!-- Generator: Adobe Illustrator 24.0.1, SVG Export Plug-In . SVG Version: 6.00 Build 0)  -->
<svg version="1.1" id="Layer_1" xmlns="http://www.w3.org/2000/svg" xmlns:xlink="http://www.w3.org/1999/xlink" x="0px" y="0px"
	 viewBox="0 0 18 18" style="enable-background:new 0 0 18 18;" xml:space="preserve">
<style type="text/css">
	.st0{fill:#5C5C5C;}
</style>
<path class="st0" d="M9.5,6C10.9,5.7,12,4.5,12,3c0-1.7-1.3-3-3-3C7.3,0,6,1.3,6,3c0,1.5,1.1,2.7,2.5,3v2.5H5
	c-1.4,0-2.5,1.1-2.5,2.5v1C1.1,12.3,0,13.5,0,15c0,1.7,1.3,3,3,3s3-1.3,3-3c0-1.5-1.1-2.7-2.5-3v-1c0-0.8,0.7-1.5,1.5-1.5h8
	c0.8,0,1.5,0.7,1.5,1.5v1c-1.4,0.2-2.5,1.5-2.5,3c0,1.7,1.3,3,3,3s3-1.3,3-3c0-1.5-1.1-2.7-2.5-3v-1c0-1.4-1.1-2.5-2.5-2.5H9.5V6z"
	/>
</svg>
