<svg width="18" height="18" viewBox="0 0 18 18" fill="none" xmlns="http://www.w3.org/2000/svg">
    <path fill-rule="evenodd" clip-rule="evenodd" d="M11 5.5C11 8.53757 8.53757 11 5.5 11C2.46243 11 0 8.53757 0 5.5C0 2.46243 2.46243 0 5.5 0C8.53757 0 11 2.46243 11 5.5ZM7 4C7 4.82843 6.32843 5.5 5.5 5.5C4.67157 5.5 4 4.82843 4 4C4 3.17157 4.67157 2.5 5.5 2.5C6.32843 2.5 7 3.17157 7 4ZM8 7.92857C8 8.5 5.5 8.5 5.5 8.5C5.5 8.5 3 8.5 3 7.92857C3 7.24286 4.21875 6.5 5.5 6.5C6.78125 6.5 8 7.24286 8 7.92857Z" fill="#5C5C5C"/>
    <path d="M15.5 11C16.8807 11 18 9.88071 18 8.5C18 7.11929 16.8807 6 15.5 6C14.1193 6 13 7.11929 13 8.5C13 9.88071 14.1193 11 15.5 11Z" fill="#5C5C5C"/>
    <path d="M18 15.5C18 16.8807 16.8807 18 15.5 18C14.1193 18 13 16.8807 13 15.5C13 14.1193 14.1193 13 15.5 13C16.8807 13 18 14.1193 18 15.5Z" fill="#5C5C5C"/>
    <path d="M8.5 18C9.88071 18 11 16.8807 11 15.5C11 14.1193 9.88071 13 8.5 13C7.11929 13 6 14.1193 6 15.5C6 16.8807 7.11929 18 8.5 18Z" fill="#5C5C5C"/>
</svg>
