<?xml version="1.0" encoding="utf-8"?>
<!-- Generator: Adobe Illustrator 24.0.1, SVG Export Plug-In . SVG Version: 6.00 Build 0)  -->
<svg version="1.1" id="Layer_1" xmlns="http://www.w3.org/2000/svg" xmlns:xlink="http://www.w3.org/1999/xlink" x="0px" y="0px"
	 viewBox="0 0 18 18" style="enable-background:new 0 0 18 18;" xml:space="preserve">
<style type="text/css">
	.st0{fill-rule:evenodd;clip-rule:evenodd;fill:#F26923;}
	.st1{fill:#F26923;}
</style>
<path class="st0" d="M11,5.5c0,3-2.5,5.5-5.5,5.5S0,8.5,0,5.5S2.5,0,5.5,0S11,2.5,11,5.5z M7,4c0,0.8-0.7,1.5-1.5,1.5S4,4.8,4,4
	s0.7-1.5,1.5-1.5S7,3.2,7,4z M8,7.9c0,0.6-2.5,0.6-2.5,0.6S3,8.5,3,7.9c0-0.7,1.2-1.4,2.5-1.4S8,7.2,8,7.9z"/>
<path class="st1" d="M15.5,11c1.4,0,2.5-1.1,2.5-2.5S16.9,6,15.5,6S13,7.1,13,8.5S14.1,11,15.5,11z"/>
<path class="st1" d="M18,15.5c0,1.4-1.1,2.5-2.5,2.5S13,16.9,13,15.5s1.1-2.5,2.5-2.5S18,14.1,18,15.5z"/>
<path class="st1" d="M8.5,18c1.4,0,2.5-1.1,2.5-2.5S9.9,13,8.5,13S6,14.1,6,15.5S7.1,18,8.5,18z"/>
</svg>
