<svg width="18" height="18" viewBox="0 0 18 18" fill="none" xmlns="http://www.w3.org/2000/svg">
    <path d="M3 6C4.65685 6 6 4.65685 6 3C6 1.34315 4.65685 0 3 0C1.34315 0 0 1.34315 0 3C0 4.65685 1.34315 6 3 6Z" fill="#5C5C5C"/>
    <path d="M1 10C0.447715 10 0 10.4477 0 11C0 11.5523 0.447716 12 1 12H17C17.5523 12 18 11.5523 18 11C18 10.4477 17.5523 10 17 10H1Z" fill="#5C5C5C"/>
    <path d="M8 5C8 4.44772 8.44771 4 9 4H17C17.5523 4 18 4.44772 18 5C18 5.55229 17.5523 6 17 6H9C8.44772 6 8 5.55229 8 5Z" fill="#5C5C5C"/>
    <path d="M1 16C0.447715 16 0 16.4477 0 17C0 17.5523 0.447716 18 1 18H17C17.5523 18 18 17.5523 18 17C18 16.4477 17.5523 16 17 16H1Z" fill="#5C5C5C"/>
</svg>
