<svg width="246" height="246" viewBox="0 0 246 246" fill="none" xmlns="http://www.w3.org/2000/svg">
    <path d="M41 82C63.6437 82 82 63.6437 82 41C82 18.3563 63.6437 0 41 0C18.3563 0 0 18.3563 0 41C0 63.6437 18.3563 82 41 82Z" fill="#272663"/>
    <path d="M13.6667 136.667C6.11878 136.667 0 142.785 0 150.333C0 157.881 6.11878 164 13.6667 164H232.333C239.881 164 246 157.881 246 150.333C246 142.785 239.881 136.667 232.333 136.667H13.6667Z" fill="#272663"/>
    <path d="M109.333 68.3333C109.333 60.7854 115.452 54.6667 123 54.6667H232.333C239.881 54.6667 246 60.7854 246 68.3333C246 75.8812 239.881 82 232.333 82H123C115.452 82 109.333 75.8812 109.333 68.3333Z" fill="#272663"/>
    <path d="M13.6667 218.667C6.11878 218.667 0 224.785 0 232.333C0 239.881 6.11878 246 13.6667 246H232.333C239.881 246 246 239.881 246 232.333C246 224.785 239.881 218.667 232.333 218.667H13.6667Z" fill="#272663"/>
</svg>
