<?xml version="1.0" encoding="utf-8"?>
<!-- Generator: Adobe Illustrator 24.0.1, SVG Export Plug-In . SVG Version: 6.00 Build 0)  -->
<svg version="1.1" id="Layer_1" xmlns="http://www.w3.org/2000/svg" xmlns:xlink="http://www.w3.org/1999/xlink" x="0px" y="0px"
	 viewBox="0 0 18 18" style="enable-background:new 0 0 18 18;" xml:space="preserve">
<style type="text/css">
	.st0{fill:#F26923;}
</style>
<path class="st0" d="M3,6c1.7,0,3-1.3,3-3S4.7,0,3,0S0,1.3,0,3S1.3,6,3,6z"/>
<path class="st0" d="M1,10c-0.6,0-1,0.4-1,1s0.4,1,1,1h16c0.6,0,1-0.4,1-1s-0.4-1-1-1H1z"/>
<path class="st0" d="M8,5c0-0.6,0.4-1,1-1h8c0.6,0,1,0.4,1,1c0,0.6-0.4,1-1,1H9C8.4,6,8,5.6,8,5z"/>
<path class="st0" d="M1,16c-0.6,0-1,0.4-1,1s0.4,1,1,1h16c0.6,0,1-0.4,1-1s-0.4-1-1-1H1z"/>
</svg>
