<svg width="18" height="18" viewBox="0 0 18 18" fill="none" xmlns="http://www.w3.org/2000/svg">
    <path fill-rule="evenodd" clip-rule="evenodd" d="M5.30947 14.0821C6.68528 15.158 8.38151 15.7426 10.1281 15.743C14.4685 15.743 18 12.2116 18 7.8715C18 3.53135 14.4685 0 10.1281 0C5.78769 0 2.25614 3.53135 2.25614 7.8715C2.25656 9.61842 2.84162 11.3149 3.9181 12.6908L0.28816 16.3206C-0.0960541 16.7048 -0.096056 17.3277 0.28816 17.7119C0.672375 18.096 1.29531 18.096 1.67952 17.7119L5.30947 14.0821ZM10.1281 13.7751C6.86741 13.7751 4.22412 11.132 4.22412 7.8715C4.22412 4.61102 6.86741 1.96787 10.1281 1.96787C13.3887 1.96787 16.032 4.61102 16.032 7.8715C16.032 11.132 13.3887 13.7751 10.1281 13.7751Z" fill="#5C5C5C"/>
</svg>
