<svg width="18" height="18" viewBox="0 0 18 18" fill="none" xmlns="http://www.w3.org/2000/svg">
    <path d="M9.00329 10.3432C9.74885 10.3432 10.3533 9.73912 10.3533 8.99389C10.3533 8.24866 9.74885 7.64453 9.00329 7.64453C8.25772 7.64453 7.65332 8.24866 7.65332 8.99389C7.65332 9.73912 8.25772 10.3432 9.00329 10.3432Z" fill="#5C5C5C"/>
    <path d="M17.9043 7.48443L17.1933 5.21751C17.1166 4.95552 16.9878 4.71166 16.8147 4.50049C16.6416 4.28931 16.4277 4.11514 16.1858 3.98838C15.9439 3.86161 15.679 3.78483 15.4068 3.76263C15.1345 3.74043 14.8606 3.77326 14.6014 3.85916L14.2954 3.95811C14.0557 4.03732 13.8004 4.05741 13.5512 4.01669C13.302 3.97596 13.0664 3.87562 12.8644 3.72423L12.7654 3.65226C12.5683 3.50147 12.4094 3.30649 12.3016 3.08304C12.1937 2.85959 12.1399 2.61393 12.1445 2.36587V2.11399C12.1488 1.54908 11.9287 1.00553 11.5325 0.602713C11.344 0.412411 11.1198 0.261201 10.8726 0.15777C10.6255 0.0543379 10.3604 0.000721629 10.0925 0H7.79756C7.24694 0.00711226 6.72141 0.231363 6.33542 0.623927C5.94942 1.01649 5.7342 1.54558 5.73662 2.096V2.3119C5.73575 2.57302 5.67628 2.83062 5.56257 3.06571C5.44887 3.3008 5.28383 3.50739 5.07963 3.67025L4.96264 3.76021C4.73705 3.93079 4.4732 4.04372 4.19402 4.08918C3.91483 4.13464 3.62877 4.11127 3.36068 4.02108C3.11446 3.93592 2.85351 3.90157 2.59363 3.92013C2.33374 3.93868 2.08033 4.00975 1.84872 4.12903C1.60757 4.24866 1.39364 4.41662 1.22023 4.62245C1.04682 4.82828 0.917646 5.06758 0.840745 5.32546L0.102764 7.66435C-0.0683736 8.19168 -0.0244851 8.76519 0.224899 9.26037C0.474283 9.75554 0.909027 10.1324 1.43473 10.3091H1.57873C1.82123 10.3999 2.03889 10.5466 2.21403 10.7373C2.38916 10.928 2.51684 11.1573 2.5867 11.4066L2.6407 11.5505C2.74102 11.8259 2.77457 12.1211 2.73859 12.412C2.70261 12.7029 2.59812 12.981 2.4337 13.2237C2.10091 13.6767 1.96053 14.2428 2.04312 14.7987C2.1257 15.3546 2.42456 15.8555 2.87469 16.1923L4.73764 17.6046C5.09039 17.861 5.51651 17.9966 5.95261 17.9914C6.06933 18.0029 6.18688 18.0029 6.3036 17.9914C6.57369 17.9392 6.83029 17.8325 7.05775 17.6778C7.2852 17.5231 7.47875 17.3238 7.62657 17.0919L7.83356 16.795C7.97877 16.5868 8.17089 16.4157 8.39444 16.2953C8.618 16.175 8.86671 16.1089 9.12053 16.1023C9.38652 16.0958 9.64984 16.1567 9.88591 16.2794C10.122 16.4021 10.3231 16.5826 10.4705 16.804L10.5785 16.9569C10.7319 17.1852 10.9305 17.3796 11.162 17.5283C11.3934 17.677 11.6529 17.7767 11.9244 17.8214C12.1958 17.866 12.4736 17.8547 12.7405 17.788C13.0074 17.7213 13.2579 17.6008 13.4764 17.4337L15.3034 16.0663C15.7353 15.731 16.0226 15.2432 16.1063 14.703C16.1899 14.1627 16.0637 13.6109 15.7534 13.1607L15.5194 12.8189C15.3787 12.6016 15.2865 12.3565 15.2492 12.1003C15.212 11.8442 15.2304 11.583 15.3034 11.3346C15.3777 11.0687 15.5157 10.8249 15.7055 10.6243C15.8952 10.4237 16.1309 10.2723 16.3923 10.1831L16.5723 10.1202C17.0932 9.93953 17.5233 9.56355 17.7719 9.07169C18.0204 8.57984 18.0679 8.01065 17.9043 7.48443ZM9.00353 12.1442C8.38054 12.1442 7.77153 11.9596 7.25353 11.6136C6.73553 11.2676 6.3318 10.7759 6.09339 10.2006C5.85498 9.62528 5.7926 8.99222 5.91414 8.38147C6.03568 7.77072 6.33568 7.20971 6.7762 6.76939C7.21673 6.32906 7.77799 6.0292 8.38901 5.90771C9.00004 5.78623 9.63338 5.84858 10.209 6.08688C10.7845 6.32518 11.2765 6.72873 11.6226 7.2465C11.9687 7.76427 12.1535 8.373 12.1535 8.99571C12.1535 9.83075 11.8216 10.6316 11.2309 11.222C10.6401 11.8125 9.83894 12.1442 9.00353 12.1442Z" fill="#5C5C5C"/>
</svg>
