<svg width="18" height="18" viewBox="0 0 18 18" fill="none" xmlns="http://www.w3.org/2000/svg">
    <path fill-rule="evenodd" clip-rule="evenodd" d="M10 4C10 1.79 11.79 0 14 0C16.21 0 18 1.79 18 4C18 6.21 16.21 8 14 8C11.79 8 10 6.21 10 4ZM15.12 2.5C15.12 1.89 14.62 1.38 14 1.38C13.38 1.38 12.88 1.89 12.88 2.5C12.88 3.11 13.39 3.62 14 3.62C14.61 3.62 15.12 3.11 15.12 2.5ZM11.76 5.58C12.26 6.29 13.07 6.75 14 6.75C14.93 6.75 15.74 6.29 16.24 5.58C16.19 4.86 14.73 4.5 14 4.5C13.27 4.5 11.81 4.86 11.76 5.58Z" fill="#5C5C5C"/>
    <path fill-rule="evenodd" clip-rule="evenodd" d="M10 14C10 11.79 11.79 10 14 10C16.21 10 18 11.79 18 14C18 16.21 16.21 18 14 18C11.79 18 10 16.21 10 14ZM15.12 12.5C15.12 11.89 14.62 11.38 14 11.38C13.38 11.38 12.88 11.89 12.88 12.5C12.88 13.11 13.39 13.62 14 13.62C14.61 13.62 15.12 13.11 15.12 12.5ZM11.76 15.58C12.26 16.29 13.07 16.75 14 16.75C14.93 16.75 15.74 16.29 16.24 15.58C16.19 14.86 14.73 14.5 14 14.5C13.27 14.5 11.81 14.86 11.76 15.58Z" fill="#5C5C5C"/>
    <path fill-rule="evenodd" clip-rule="evenodd" d="M4 10C1.79 10 0 11.79 0 14C0 16.21 1.79 18 4 18C6.21 18 8 16.21 8 14C8 11.79 6.21 10 4 10ZM4 11.38C4.62 11.38 5.12 11.89 5.12 12.5C5.12 13.11 4.61 13.62 4 13.62C3.39 13.62 2.88 13.11 2.88 12.5C2.88 11.89 3.38 11.38 4 11.38ZM4 16.75C3.07 16.75 2.26 16.29 1.76 15.58C1.81 14.86 3.27 14.5 4 14.5C4.73 14.5 6.19 14.86 6.24 15.58C5.74 16.29 4.93 16.75 4 16.75Z" fill="#5C5C5C"/>
    <path fill-rule="evenodd" clip-rule="evenodd" d="M0 4C0 1.79 1.79 0 4 0C6.21 0 8 1.79 8 4C8 6.21 6.21 8 4 8C1.79 8 0 6.21 0 4ZM5.12 2.5C5.12 1.89 4.62 1.38 4 1.38C3.38 1.38 2.88 1.89 2.88 2.5C2.88 3.11 3.39 3.62 4 3.62C4.61 3.62 5.12 3.11 5.12 2.5ZM1.76 5.58C2.26 6.29 3.07 6.75 4 6.75C4.93 6.75 5.74 6.29 6.24 5.58C6.19 4.86 4.73 4.5 4 4.5C3.27 4.5 1.81 4.86 1.76 5.58Z" fill="#5C5C5C"/>
</svg>
