<?xml version="1.0" encoding="utf-8"?>
<!-- Generator: Adobe Illustrator 24.0.1, SVG Export Plug-In . SVG Version: 6.00 Build 0)  -->
<svg version="1.1" id="Layer_1" xmlns="http://www.w3.org/2000/svg" xmlns:xlink="http://www.w3.org/1999/xlink" x="0px" y="0px"
	 viewBox="0 0 18 18" style="enable-background:new 0 0 18 18;" xml:space="preserve">
<style type="text/css">
	.st0{fill-rule:evenodd;clip-rule:evenodd;fill:#F26923;}
</style>
<path class="st0" d="M10,4c0-2.2,1.8-4,4-4s4,1.8,4,4s-1.8,4-4,4S10,6.2,10,4z M15.1,2.5c0-0.6-0.5-1.1-1.1-1.1s-1.1,0.5-1.1,1.1
	s0.5,1.1,1.1,1.1S15.1,3.1,15.1,2.5z M11.8,5.6c0.5,0.7,1.3,1.2,2.2,1.2s1.7-0.5,2.2-1.2c0-0.7-1.5-1.1-2.2-1.1S11.8,4.9,11.8,5.6z"
	/>
<path class="st0" d="M10,14c0-2.2,1.8-4,4-4s4,1.8,4,4s-1.8,4-4,4S10,16.2,10,14z M15.1,12.5c0-0.6-0.5-1.1-1.1-1.1
	s-1.1,0.5-1.1,1.1s0.5,1.1,1.1,1.1S15.1,13.1,15.1,12.5z M11.8,15.6c0.5,0.7,1.3,1.2,2.2,1.2s1.7-0.5,2.2-1.2c0-0.7-1.5-1.1-2.2-1.1
	S11.8,14.9,11.8,15.6z"/>
<path class="st0" d="M4,10c-2.2,0-4,1.8-4,4s1.8,4,4,4s4-1.8,4-4S6.2,10,4,10z M4,11.4c0.6,0,1.1,0.5,1.1,1.1S4.6,13.6,4,13.6
	s-1.1-0.5-1.1-1.1S3.4,11.4,4,11.4z M4,16.8c-0.9,0-1.7-0.5-2.2-1.2c0-0.7,1.5-1.1,2.2-1.1s2.2,0.4,2.2,1.1
	C5.7,16.3,4.9,16.8,4,16.8z"/>
<path class="st0" d="M0,4c0-2.2,1.8-4,4-4s4,1.8,4,4S6.2,8,4,8S0,6.2,0,4z M5.1,2.5c0-0.6-0.5-1.1-1.1-1.1S2.9,1.9,2.9,2.5
	S3.4,3.6,4,3.6S5.1,3.1,5.1,2.5z M1.8,5.6C2.3,6.3,3.1,6.8,4,6.8s1.7-0.5,2.2-1.2c0-0.7-1.5-1.1-2.2-1.1S1.8,4.9,1.8,5.6z"/>
</svg>
