<?xml version="1.0" encoding="utf-8"?>
<!-- Generator: Adobe Illustrator 24.0.1, SVG Export Plug-In . SVG Version: 6.00 Build 0)  -->
<svg version="1.1" id="Layer_1" xmlns="http://www.w3.org/2000/svg" xmlns:xlink="http://www.w3.org/1999/xlink" x="0px" y="0px"
	 viewBox="0 0 18 18" style="enable-background:new 0 0 18 18;" xml:space="preserve">
<style type="text/css">
	.st0{fill-rule:evenodd;clip-rule:evenodd;fill:#F26923;}
</style>
<path class="st0" d="M4,7c0-3.9,3.1-7,7-7s7,3.1,7,7s-3.1,7-7,7c-1.6,0-3-0.5-4.2-1.4l-5.1,5.1c-0.4,0.4-1,0.4-1.4,0
	c-0.4-0.4-0.4-1,0-1.4l5.1-5.1C4.5,10,4,8.6,4,7z M13,4.4c0-1.1-0.9-2-2-2s-2,0.9-2,2s0.9,2,2,2S13,5.4,13,4.4z M7.1,9.8
	c0.9,1.2,2.3,2,3.9,2s3-0.8,3.9-2c-0.1-1.3-2.6-1.9-3.9-1.9S7.2,8.5,7.1,9.8z"/>
</svg>
