<svg width="18" height="18" viewBox="0 0 18 18" fill="none" xmlns="http://www.w3.org/2000/svg">
    <path fill-rule="evenodd" clip-rule="evenodd" d="M4 7C4 3.1325 7.1325 0 11 0C14.8675 0 18 3.1325 18 7C18 10.8675 14.8675 14 11 14C9.4271 14 7.97578 13.4819 6.8073 12.6069L1.70711 17.7071C1.31658 18.0976 0.683417 18.0976 0.292893 17.7071C-0.0976311 17.3166 -0.0976311 16.6834 0.292893 16.2929L5.39308 11.1927C4.51812 10.0242 4 8.5729 4 7ZM12.96 4.375C12.96 3.3075 12.085 2.415 11 2.415C9.915 2.415 9.04 3.3075 9.04 4.375C9.04 5.4425 9.9325 6.335 11 6.335C12.0675 6.335 12.96 5.4425 12.96 4.375ZM7.08 9.765C7.955 11.0075 9.3725 11.8125 11 11.8125C12.6275 11.8125 14.045 11.0075 14.92 9.765C14.8325 8.505 12.2775 7.875 11 7.875C9.7225 7.875 7.1675 8.505 7.08 9.765Z" fill="#5C5C5C"/>
</svg>
