<svg width="19" height="19" viewBox="0 0 19 19" fill="none" xmlns="http://www.w3.org/2000/svg">
    <path d="M8 0C3.589 0 0 3.589 0 8C0 12.411 3.589 16 8 16C9.77498 15.9996 11.4988 15.4054 12.897 14.312L16.586 18.001C16.9765 18.3915 17.6095 18.3915 18 18.001C18.3905 17.6105 18.3905 16.9775 18 16.587L14.311 12.898C15.405 11.4997 15.9996 9.77544 16 8C16 3.589 12.411 0 8 0ZM12 8C12 8.55228 11.5523 9 11 9H9V11C9 11.5523 8.55228 12 8 12C7.44772 12 7 11.5523 7 11L7 9H5C4.44772 9 4 8.55228 4 8C4 7.44772 4.44772 7 5 7H7V5C7 4.44772 7.44772 4 8 4C8.55228 4 9 4.44772 9 5V7L11 7C11.5523 7 12 7.44772 12 8Z" fill="#5C5C5C"/>
</svg>
