<svg width="24" height="24" viewBox="0 0 24 24" fill="none" xmlns="http://www.w3.org/2000/svg">
<path d="M6.864 17.136C7.32755 17.6037 7.8789 17.9751 8.4864 18.2291C9.0939 18.4831 9.74558 18.6146 10.404 18.616C11.0625 18.6175 11.7147 18.4888 12.3233 18.2375C12.9319 17.9862 13.4849 17.6172 13.9505 17.1516C14.4161 16.686 14.7852 16.133 15.0365 15.5244C15.2878 14.9158 15.4164 14.2635 15.415 13.6051C15.4135 12.9466 15.282 12.2949 15.0281 11.6874C14.7741 11.0799 14.4026 10.5286 13.935 10.065C12.9959 9.13415 11.7263 8.61314 10.404 8.61604C9.08175 8.61894 7.81445 9.14549 6.87945 10.0805C5.94445 11.0155 5.41789 12.2828 5.41499 13.6051C5.4121 14.9274 5.9331 16.197 6.864 17.136ZM14.592 7.99404L17.145 5.44104H15.628C15.3628 5.44104 15.1084 5.33569 14.9209 5.14815C14.7334 4.96061 14.628 4.70626 14.628 4.44104C14.628 4.17583 14.7334 3.92147 14.9209 3.73394C15.1084 3.5464 15.3628 3.44104 15.628 3.44104H19.628C19.7594 3.44065 19.8896 3.46624 20.0111 3.51636C20.1327 3.56647 20.243 3.64012 20.336 3.73305C20.4289 3.82599 20.5026 3.93639 20.5527 4.05789C20.6028 4.1794 20.6284 4.30961 20.628 4.44104V8.44104C20.628 8.70626 20.5226 8.96061 20.3351 9.14815C20.1476 9.33569 19.8932 9.44104 19.628 9.44104C19.3628 9.44104 19.1084 9.33569 18.9209 9.14815C18.7334 8.96061 18.628 8.70626 18.628 8.44104V6.78604L16.006 9.40804C17.0586 10.8261 17.5365 12.5895 17.3439 14.3449C17.1513 16.1004 16.3025 17.7183 14.9676 18.8744C13.6326 20.0305 11.9101 20.6395 10.1452 20.5794C8.3802 20.5192 6.70314 19.7944 5.45 18.55C4.19783 17.2988 3.46622 15.6196 3.40249 13.8505C3.33876 12.0815 3.94763 10.354 5.10651 9.01586C6.26539 7.67774 7.88821 6.82837 9.64822 6.63877C11.4082 6.44918 13.1747 6.93344 14.592 7.99404Z" fill="#5C5C5C"/>
</svg>
